<svg width="36" height="46" viewBox="0 0 36 46" fill="none" xmlns="http://www.w3.org/2000/svg">
<path d="M18 15.4501C19.2001 15.4501 20.3251 15.9251 21.1751 16.7751L29.775 25.3751C31.5251 27.1251 31.5251 30.0001 29.775 31.7501L21.1751 40.3501C20.3251 41.2001 19.2001 41.6751 18 41.6751C16.8001 41.6751 15.675 41.2001 14.825 40.3501L6.22505 31.7501C4.47505 30.0001 4.47505 27.1251 6.22505 25.3751L14.825 16.7751C15.675 15.9251 16.8001 15.4501 18 15.4501ZM18 11.2251C15.7751 11.2251 13.525 12.0751 11.825 13.7751L3.22505 22.3751C-0.174951 25.7751 -0.174951 31.3251 3.22505 34.7251L11.825 43.3251C13.525 45.0251 15.7751 45.8751 18 45.8751C20.225 45.8751 22.4751 45.0251 24.1751 43.3251L32.7751 34.7251C36.1751 31.3251 36.1751 25.7751 32.7751 22.3751L24.1751 13.7751C22.4751 12.0751 20.225 11.2251 18 11.2251Z" fill="#FB6514"/>
<path d="M18 4.85C19.2001 4.85 20.3251 5.32499 21.1751 6.17499L29.775 14.775C31.5251 16.525 31.5251 19.4 29.775 21.15L21.1751 29.75C20.3251 30.6 19.2001 31.075 18 31.075C16.8001 31.075 15.675 30.6 14.825 29.75L6.22505 21.15C4.47505 19.4 4.47505 16.525 6.22505 14.775L14.825 6.17499C15.675 5.32499 16.8001 4.85 18 4.85ZM18 0.625C15.7751 0.625 13.525 1.475 11.825 3.175L3.22505 11.775C-0.174951 15.175 -0.174951 20.725 3.22505 24.125L11.825 32.725C13.525 34.425 15.7751 35.275 18 35.275C20.225 35.275 22.4751 34.425 24.1751 32.725L32.7751 24.125C36.1751 20.725 36.1751 15.175 32.7751 11.775L24.1751 3.175C22.4751 1.475 20.225 0.625 18 0.625Z" fill="#FB6514"/>
</svg>
